<svg width="402" height="402" viewBox="0 0 402 402" fill="none" xmlns="http://www.w3.org/2000/svg">
<path d="M269.5 0L302.5 33L235 99.1765L302.162 166.338L368.5 100L401.5 133L335.162 199.338L400.824 265L366.5 299.324L300.838 233.662L233 301.5L299 367.5L266 400.5L200 334.5L132.5 402L99.5 369L267.838 200.662L268 200.5L200.5 133L168.5 101L103 35L136.25 1.75L202 67.5L269.5 0Z" fill="#05B3BC"/>
<path d="M32.5 301L0 268.5L67.5 201L1.5 135L34 102.5L100 168.5L168 100.5L200.5 133L132.5 201L200 268.5L167.5 301L100 233.5L32.5 301Z" fill="#062D56"/>
</svg>
